<svg width="350" height="94" viewBox="0 0 350 94" fill="none" xmlns="http://www.w3.org/2000/svg">
<g clip-path="url(#clip0_35_140)">
<path d="M39.0926 1.17334H0.626343V93.115L39.0926 1.17334Z" fill="black"/>
<path d="M66.1449 1.17334H104.561V93.115L66.1449 1.17334Z" fill="black"/>
<path d="M52.6259 35.0503L77.109 93.1055H61.0458L53.7285 74.6221H35.8109L52.6259 35.0503Z" fill="black"/>
<path d="M167.329 59.6475L171.865 72.6461C172.016 72.9717 172.241 73.1219 172.641 73.1219H181.362C181.839 73.1219 181.914 72.8965 181.839 72.4207L163.821 22.4051C163.746 22.0043 163.67 21.9292 163.27 21.9292H152.444C152.143 21.9292 151.967 22.1546 151.967 22.4802C151.817 25.1099 151.592 25.9113 151.266 26.6877L135.203 72.3456C135.127 72.8965 135.303 73.1219 135.754 73.1219H143.547C144.024 73.1219 144.249 72.9717 144.424 72.4958L148.71 59.6475H167.329ZM151.191 51.1571C153.546 44.0443 156.653 34.9277 157.907 29.7183H157.982C159.535 35.1782 163.194 45.9978 164.848 51.1571H151.191Z" fill="black"/>
<path d="M205 73.9013C209.687 73.9013 214.674 73.0498 219.736 70.8709C220.136 70.7205 220.212 70.5453 220.212 70.1695C220.061 68.767 219.886 66.7384 219.886 65.1856V18.1002C219.886 17.7997 219.886 17.6494 219.51 17.6494H211.015C210.69 17.6494 210.539 17.7997 210.539 18.2004V34.1543C209.211 34.0041 208.284 33.9289 207.181 33.9289C193.474 33.9289 185.054 42.9702 185.054 54.2658C185.054 67.3645 193.699 73.9013 205 73.9013ZM210.539 65.1856C209.135 65.6364 207.581 65.8117 206.003 65.8117C199.788 65.8117 194.702 62.3053 194.702 53.7898C194.702 46.2512 199.939 41.7931 206.88 41.7931C208.284 41.7931 209.512 41.9434 210.539 42.3441V65.1856Z" fill="black"/>
<path d="M247.309 33.9248C235.606 33.9248 228.364 42.8911 228.364 53.9612C228.364 63.8541 234.127 73.8973 247.133 73.8973C258.134 73.8973 265.852 65.8076 265.852 53.7107C265.852 43.0414 259.312 33.9248 247.309 33.9248ZM246.832 41.7891C253.448 41.7891 256.255 47.4744 256.255 53.9612C256.255 61.9756 252.12 65.9579 247.309 65.9579C241.369 65.9579 237.861 60.9738 237.861 53.7858C237.861 46.3974 241.594 41.7891 246.832 41.7891Z" fill="black"/>
<path d="M274.64 17.6494C274.314 17.6494 274.089 17.7997 274.089 18.2004V71.497C274.089 71.7224 274.314 72.1231 274.64 72.1983C278.374 73.3503 282.282 73.9013 286.318 73.9013C297.87 73.9013 309.096 66.7384 309.096 52.3122C309.096 41.8683 301.929 33.9289 290.703 33.9289C288.121 33.9289 285.716 34.3296 283.611 35.0309L283.51 18.2755C283.51 17.7245 283.361 17.6494 282.809 17.6494H274.64ZM299.498 53.2639C299.498 61.9046 293.585 65.962 287.195 65.962C285.866 65.962 284.688 65.8869 283.611 65.5613V42.82C284.839 42.3441 286.318 41.9434 289.049 41.9434C295.213 41.9434 299.498 45.8505 299.498 53.2639Z" fill="black"/>
<path d="M340.793 56.0649C344.602 56.0649 347.734 55.9898 348.813 55.7393C349.213 55.6642 349.364 55.5139 349.438 55.1884C349.665 54.3368 349.764 52.5586 349.764 50.3796C349.764 42.9662 345.304 33.9248 333.776 33.9248C321.999 33.9248 315.458 43.5172 315.458 54.3368C315.458 63.9292 320.52 73.8973 334.704 73.8973C340.017 73.8973 343.45 73.0457 346.407 71.6432C346.707 71.4929 346.857 71.2425 346.857 70.7916V64.3049C346.857 63.9292 346.632 63.8541 346.407 64.0044C343.45 65.2566 340.242 65.8827 336.733 65.8827C328.789 65.8827 325.181 61.4998 324.955 56.0649H340.793ZM324.955 49.3528C325.582 45.5459 327.988 41.4134 333.376 41.4134C339.314 41.4134 340.869 46.3974 340.869 48.6515C340.869 48.7267 340.869 49.0522 340.869 49.2777C340.543 49.3528 339.54 49.3528 336.584 49.3528H324.955Z" fill="black"/>
</g>
<defs>
<clipPath id="clip0_35_140">
<rect width="350" height="92.2156" fill="white" transform="translate(0 0.90332)"/>
</clipPath>
</defs>
</svg>
