<svg width="350" height="105" viewBox="0 0 350 105" fill="none" xmlns="http://www.w3.org/2000/svg">
<g clip-path="url(#clip0_35_157)">
<mask id="mask0_35_157" style="mask-type:luminance" maskUnits="userSpaceOnUse" x="0" y="0" width="350" height="105">
<path d="M349.541 0.235352H0.458862V104.96H349.541V0.235352Z" fill="white"/>
</mask>
<g mask="url(#mask0_35_157)">
<path fill-rule="evenodd" clip-rule="evenodd" d="M217.03 82.1315C196.748 97.0031 167.355 104.96 142.012 104.96C106.51 104.96 74.569 91.8953 50.3776 70.144C48.4926 68.4418 50.1682 66.1135 52.4721 67.4337C78.5486 82.5483 110.839 91.6174 144.141 91.6174C166.622 91.6174 191.337 86.9963 214.062 77.3714C217.518 75.9464 220.381 79.6299 217.03 82.1315Z" fill="black"/>
<path fill-rule="evenodd" clip-rule="evenodd" d="M225.442 72.5081C222.859 69.2071 208.303 70.9442 201.775 71.7087C199.785 71.9523 199.471 70.2146 201.286 68.9984C212.876 60.8683 231.901 63.2309 234.135 65.9411C236.369 68.6856 233.541 87.6575 222.65 96.726C220.974 98.116 219.368 97.3865 220.136 95.5447C222.58 89.4644 228.061 75.8439 225.442 72.5081Z" fill="black"/>
<path fill-rule="evenodd" clip-rule="evenodd" d="M202.229 11.6672V3.77987C202.229 2.59851 203.136 1.79932 204.218 1.79932H239.72C240.872 1.79932 241.78 2.63327 241.78 3.77987V10.5554C241.78 11.7019 240.802 13.1613 239.092 15.524L220.73 41.6532C227.572 41.4794 234.798 42.4868 240.977 45.9616C242.373 46.761 242.757 47.9074 242.862 49.0196V57.4276C242.862 58.5746 241.57 59.9298 240.244 59.2344C229.317 53.536 214.796 52.9111 202.717 59.3042C201.495 59.964 200.204 58.6438 200.204 57.4974V49.5055C200.204 48.2202 200.204 46.0314 201.495 44.0856L222.824 13.6477H204.288C203.136 13.6477 202.229 12.8486 202.229 11.6672Z" fill="black"/>
<path fill-rule="evenodd" clip-rule="evenodd" d="M72.684 60.9371H61.8974C60.8501 60.8673 60.0472 60.1028 59.9774 59.0953V3.91865C59.9774 2.80676 60.9199 1.9381 62.0719 1.9381H72.1604C73.2076 1.97287 74.0454 2.77199 74.1153 3.77965V11.0068H74.3247C76.9428 4.02289 81.8998 0.791504 88.5324 0.791504C95.3045 0.791504 99.5285 4.05759 102.565 11.0068C105.184 4.02289 111.118 0.791504 117.471 0.791504C122.009 0.791504 126.966 2.66775 129.968 6.83733C133.389 11.4933 132.691 18.234 132.691 24.1409V58.9564C132.691 60.0686 131.749 60.9371 130.597 60.9371H119.81C118.728 60.8673 117.855 59.9987 117.855 58.9564V29.7002C117.855 27.3722 118.065 21.5697 117.541 19.3459C116.738 15.6281 114.33 14.5857 111.188 14.5857C108.57 14.5857 105.847 16.323 104.73 19.1027C103.613 21.8824 103.717 26.5384 103.717 29.6655V58.9215C103.717 60.0336 102.775 60.9022 101.623 60.9022H90.8712C89.7891 60.833 88.9163 59.9638 88.9163 58.9215V29.6655C88.9163 23.5154 89.9287 14.4467 82.2489 14.4467C74.4992 14.4467 74.7785 23.2722 74.7785 29.6655V58.9215C74.7785 60.0336 73.836 60.9371 72.684 60.9371Z" fill="black"/>
<path fill-rule="evenodd" clip-rule="evenodd" d="M272.394 0.756348C288.417 0.756348 297.109 14.4463 297.109 31.8888C297.109 48.7062 287.509 62.0831 272.394 62.0831C256.65 62.0831 248.098 48.3935 248.098 31.2981C248.063 14.1336 256.755 0.756348 272.394 0.756348ZM272.464 12.0488C264.505 12.0488 264.016 22.8201 264.016 29.5609C264.016 36.3016 263.911 50.7211 272.394 50.7211C280.772 50.7211 281.156 39.116 281.156 32.0278C281.156 27.3719 280.947 21.8125 279.55 17.3997C278.328 13.5429 275.92 12.0488 272.464 12.0488Z" fill="black"/>
<path fill-rule="evenodd" clip-rule="evenodd" d="M317.879 60.9367H307.128C306.046 60.8669 305.173 59.9984 305.173 58.956V3.74449C305.278 2.7369 306.15 1.93771 307.267 1.93771H317.286C318.229 1.97248 318.996 2.63266 319.206 3.46655V11.9098H319.415C322.452 4.36991 326.676 0.756348 334.147 0.756348C338.999 0.756348 343.712 2.49366 346.749 7.25389C349.576 11.6666 349.576 19.1023 349.576 24.4184V59.1647C349.471 60.1373 348.564 60.9018 347.482 60.9018H336.66C335.683 60.8327 334.845 60.1024 334.74 59.1647V29.2134C334.74 23.1676 335.438 14.3421 327.968 14.3421C325.35 14.3421 322.906 16.0794 321.719 18.7548C320.183 22.1252 320.009 25.4955 320.009 29.2134V58.9211C319.974 60.0333 319.031 60.9367 317.879 60.9367Z" fill="black"/>
<path fill-rule="evenodd" clip-rule="evenodd" d="M173.918 34.5645C173.918 38.7687 174.023 42.2432 171.893 45.961C170.183 48.984 167.425 50.8607 164.423 50.8607C160.269 50.8607 157.86 47.6987 157.86 43.0775C157.86 33.9043 166.098 32.2365 173.953 32.2365L173.918 34.5645ZM184.809 60.7628C184.111 61.3883 183.064 61.4581 182.261 61.0064C178.665 58.0532 178.037 56.6631 176.047 53.8488C170.113 59.8593 165.924 61.6662 158.244 61.6662C149.133 61.6662 142.082 56.0725 142.082 44.9186C142.082 36.1975 146.829 30.2559 153.601 27.3373C159.466 24.7661 167.669 24.3144 173.918 23.5847V22.1949C173.918 19.6237 174.127 16.6008 172.591 14.4117C171.3 12.4312 168.751 11.5974 166.517 11.5974C162.398 11.5974 158.733 13.7168 157.825 18.0601C157.651 19.033 156.918 19.9711 155.94 20.0406L145.468 18.9288C144.595 18.7202 143.583 18.0254 143.862 16.6702C146.305 4.05746 157.79 0.235352 168.053 0.235352C173.324 0.235352 180.166 1.62519 184.321 5.58623C189.592 10.4855 189.068 16.983 189.068 24.0712V40.819C189.068 45.8569 191.163 48.0806 193.152 50.7909C193.85 51.7641 193.99 52.9105 193.117 53.6401C190.918 55.516 187.008 58.9217 184.809 60.7628Z" fill="black"/>
<path fill-rule="evenodd" clip-rule="evenodd" d="M32.2952 34.5645C32.2952 38.7687 32.3999 42.2432 30.2705 45.961C28.56 48.984 25.8372 50.8607 22.8001 50.8607C18.6461 50.8607 16.2374 47.6987 16.2374 43.0775C16.2374 33.9043 24.4757 32.2365 32.2952 32.2365V34.5645ZM43.1865 60.7628C42.4884 61.3883 41.4411 61.4581 40.6382 61.0064C37.0427 58.0532 36.4144 56.6631 34.4246 53.8488C28.4902 59.8593 24.3012 61.6662 16.6214 61.6662C7.54524 61.6662 0.458862 56.0725 0.458862 44.9186C0.458862 36.1975 5.20638 30.2559 11.9786 27.3373C17.8432 24.7661 26.0466 24.3144 32.2952 23.5847V22.1949C32.2952 19.6237 32.5046 16.6008 31.0036 14.4117C29.6771 12.4312 27.1637 11.5974 24.9295 11.5974C20.8104 11.5974 17.145 13.7168 16.2374 18.0601C16.0628 19.033 15.3298 19.9711 14.3523 20.0406L3.87987 18.9288C3.00716 18.7202 2.02973 18.0254 2.27409 16.6702C4.68276 4.05746 16.1676 0.235352 26.4306 0.235352C31.7017 0.235352 38.5438 1.62519 42.6978 5.58623C47.969 10.4855 47.4454 16.983 47.4454 24.0712V40.819C47.4454 45.8569 49.5399 48.0806 51.5296 50.7909C52.2278 51.7641 52.3674 52.9105 51.4947 53.6401C49.2955 55.516 45.3858 58.9217 43.1865 60.7628Z" fill="black"/>
</g>
</g>
<defs>
<clipPath id="clip0_35_157">
<rect width="350" height="105" fill="white"/>
</clipPath>
</defs>
</svg>
