<svg width="350" height="113" viewBox="0 0 350 113" fill="none" xmlns="http://www.w3.org/2000/svg">
<g clip-path="url(#clip0_35_120)">
<mask id="mask0_35_120" style="mask-type:luminance" maskUnits="userSpaceOnUse" x="0" y="0" width="350" height="113">
<path d="M349.336 0.664062H0.664185V112.239H349.336V0.664062Z" fill="white"/>
</mask>
<g mask="url(#mask0_35_120)">
<path d="M346.891 76.8488C346.366 76.8488 345.842 77.1975 345.492 78.0692C341.999 88.1807 337.108 94.2824 333.09 94.2824C330.819 94.2824 329.946 91.6674 329.946 87.832C329.946 77.8948 335.885 56.8002 338.855 47.0374C339.205 45.8171 339.379 44.771 339.379 43.8994C339.379 41.11 337.806 39.7153 333.964 39.7153C329.946 39.7153 325.404 41.2843 321.212 48.7808C319.814 42.156 315.272 39.3666 308.984 39.3666C301.821 39.3666 294.834 44.0737 289.069 51.5701C283.304 59.0666 276.493 61.5073 271.426 60.2869C275.094 51.3958 276.493 44.5967 276.493 39.7153C276.493 31.8702 272.649 27.1631 266.36 27.1631C256.927 27.1631 251.513 36.2286 251.513 45.6427C251.513 52.9648 254.831 60.4613 262.168 64.1223C256.053 77.8948 247.145 90.447 243.651 90.447C239.285 90.447 237.886 69.0037 238.236 53.6622C238.411 44.9454 239.109 44.4224 239.109 41.8073C239.109 40.2383 238.062 39.1923 234.044 39.1923C224.786 39.1923 221.816 47.0374 221.466 56.1029C221.292 59.5896 220.768 62.902 219.894 66.2143C216.051 79.9869 208.016 90.6214 202.775 90.6214C200.33 90.6214 199.63 88.1807 199.63 85.0426C199.63 75.1055 205.221 62.5533 205.221 51.9188C205.221 44.0737 201.727 39.1923 195.264 39.1923C187.578 39.1923 177.621 48.2578 168.013 65.1683C171.157 52.2675 172.379 39.7153 163.122 39.7153C161.025 39.7153 159.104 40.2383 157.357 41.2843C156.135 41.8073 155.435 43.0277 155.435 44.4224C156.309 58.1949 144.255 93.5851 132.901 93.5851C130.805 93.5851 129.756 91.3187 129.756 87.6577C129.756 77.7205 135.695 56.6259 138.665 46.8631C139.015 45.6427 139.189 44.5967 139.189 43.5507C139.189 40.9356 137.618 39.541 133.774 39.541C129.756 39.541 125.214 41.11 121.022 48.6064C119.45 41.9817 115.083 39.1923 108.794 39.1923C98.4875 39.1923 87.1334 50.0011 82.0675 64.1223C75.2548 82.9506 61.804 101.256 43.462 101.256C26.867 101.256 18.1328 87.4833 18.1328 65.6913C18.1328 34.1365 41.3658 8.50918 58.485 8.50918C66.6952 8.50918 70.5382 13.7393 70.5382 21.7587C70.5382 31.5215 65.123 35.8799 65.123 39.7153C65.123 40.7613 65.9964 41.9817 67.918 41.9817C75.4295 41.9817 84.1637 33.2649 84.1637 21.2357C84.1637 9.20652 74.7308 0.664062 57.6116 0.664062C29.1379 0.664062 0.664185 29.0808 0.664185 65.6913C0.664185 94.8054 14.9883 112.239 39.7936 112.239C56.7382 112.239 71.5863 99.1638 79.4473 83.8223C80.3207 96.5488 86.0853 103.174 94.9938 103.174C102.855 103.174 109.144 98.4665 114.035 90.2727C115.956 98.8152 120.848 102.999 127.311 102.999C134.648 102.999 140.936 98.2921 146.701 89.7497C146.701 96.5488 148.099 102.999 154.038 102.999C156.833 102.999 160.151 102.302 160.675 99.8612C166.964 74.2338 182.337 53.1392 187.054 53.1392C188.451 53.1392 188.8 54.5338 188.8 56.1029C188.8 63.0763 183.909 77.3718 183.909 86.4373C183.909 96.3745 188.102 102.825 196.836 102.825C206.443 102.825 216.226 91.1444 222.689 73.8851C224.786 89.924 229.152 102.825 235.965 102.825C244.35 102.825 259.547 85.0426 268.631 66.2143C272.125 66.7374 277.54 66.563 282.78 62.902C280.51 68.4807 279.287 74.5825 279.287 80.5099C279.287 97.9435 287.672 102.825 294.834 102.825C302.695 102.825 308.984 98.1178 313.875 89.924C315.447 97.2461 319.64 102.651 327.151 102.651C338.855 102.651 349.162 90.6214 349.162 80.6842C349.336 78.5922 348.113 76.8488 346.891 76.8488ZM102.331 93.4107C97.6147 93.4107 95.6935 88.7037 95.6935 81.5559C95.6935 69.1781 104.252 48.4321 113.162 48.4321C117.004 48.4321 118.577 52.9648 118.577 58.7179C118.577 71.2701 110.541 93.4107 102.331 93.4107ZM265.312 56.4515C262.518 53.1392 261.469 48.4321 261.469 44.4224C261.469 39.3666 263.391 35.1826 265.487 35.1826C267.583 35.1826 268.457 37.2746 268.457 40.4126C268.283 45.294 266.536 52.7905 265.312 56.4515ZM302.171 93.4107C297.455 93.4107 295.532 87.832 295.532 81.5559C295.532 69.5267 304.092 48.4321 313.001 48.4321C316.844 48.4321 318.241 52.9648 318.241 58.7179C318.417 71.2701 310.555 93.4107 302.171 93.4107Z" fill="black"/>
</g>
</g>
<defs>
<clipPath id="clip0_35_120">
<rect width="350" height="112.903" fill="white"/>
</clipPath>
</defs>
</svg>
