<svg width="350" height="111" viewBox="0 0 350 111" fill="none" xmlns="http://www.w3.org/2000/svg">
<g clip-path="url(#clip0_35_170)">
<mask id="mask0_35_170" style="mask-type:luminance" maskUnits="userSpaceOnUse" x="0" y="0" width="350" height="111">
<path d="M349.798 0.90332H0V110.507H349.798V0.90332Z" fill="white"/>
</mask>
<g mask="url(#mask0_35_170)">
<path d="M43.756 40.0118V51.7194H72.0098C71.2598 58.196 69.0095 63.178 65.509 66.4162C61.5084 70.4018 55.0075 74.8856 43.756 74.8856C26.5036 74.8856 13.0018 60.9361 13.0018 43.7483C13.0018 26.5604 26.2536 12.6109 43.756 12.6109C53.0072 12.6109 60.0082 16.3475 65.0089 21.0803L73.2603 12.86C66.2591 6.13439 56.7578 0.90332 43.756 0.90332C20.0028 0.90332 0 20.0839 0 43.7483C0 67.4126 20.0028 86.5934 43.756 86.5934C56.5078 86.5934 66.2591 82.3583 73.7601 74.6364C81.5113 66.9144 84.0117 55.9541 84.0117 47.2356C84.0117 44.4956 83.7618 42.0046 83.5112 40.0118H43.756Z" fill="black"/>
<path d="M119.016 30.2964C103.764 30.2964 91.0125 42.004 91.0125 57.9463C91.0125 73.8886 103.514 85.5959 119.016 85.5959C134.518 85.5959 147.02 74.138 147.02 58.1954C147.02 42.004 134.518 30.2964 119.016 30.2964ZM119.016 74.8848C110.515 74.8848 103.264 67.9102 103.264 58.1954C103.264 48.2314 110.515 41.5058 119.016 41.5058C127.517 41.5058 134.768 48.2314 134.768 58.1954C134.768 67.9102 127.517 74.8848 119.016 74.8848Z" fill="black"/>
<path d="M255.785 36.5238H255.285C252.534 33.2856 247.283 30.2964 240.533 30.2964C226.531 30.2964 214.53 42.2531 214.53 57.9463C214.53 73.3904 226.531 85.5959 240.533 85.5959C247.283 85.5959 252.534 82.6067 255.285 79.369H255.785V83.3542C255.785 93.8162 250.034 99.5455 241.033 99.5455C233.532 99.5455 229.032 94.3145 227.031 89.5819L216.529 94.0654C219.53 101.29 227.781 110.506 241.283 110.506C255.535 110.506 267.787 102.036 267.787 81.6108V31.7909H256.285V36.5238H255.785ZM241.783 74.8848C233.282 74.8848 227.031 67.6611 227.031 58.1954C227.031 48.4805 233.532 41.5058 241.783 41.5058C250.034 41.5058 256.535 48.7296 256.535 58.4445C256.785 67.9102 250.284 74.8848 241.783 74.8848Z" fill="black"/>
<path d="M181.275 30.2964C166.023 30.2964 153.271 42.004 153.271 57.9463C153.271 73.8886 165.773 85.5959 181.275 85.5959C196.777 85.5959 209.279 74.138 209.279 58.1954C209.279 42.004 196.777 30.2964 181.275 30.2964ZM181.275 74.8848C172.774 74.8848 165.523 67.9102 165.523 58.1954C165.523 48.2314 172.774 41.5058 181.275 41.5058C189.776 41.5058 197.027 48.2314 197.027 58.1954C197.027 67.9102 189.776 74.8848 181.275 74.8848Z" fill="black"/>
<path d="M277.038 2.14941H289.04V85.8469H277.038V2.14941Z" fill="black"/>
<path d="M326.044 74.8848C319.793 74.8848 315.543 72.1449 312.543 66.4157L349.798 51.2206L348.547 47.9823C346.297 41.7549 339.046 30.2964 324.794 30.2964C310.542 30.2964 298.541 41.5058 298.541 57.9463C298.541 73.3904 310.292 85.5959 326.044 85.5959C338.796 85.5959 346.047 77.874 349.298 73.3904L339.796 67.1629C336.546 71.8958 332.295 74.8848 326.044 74.8848ZM325.295 40.7585C330.295 40.7585 334.546 43.2495 335.795 46.7369L310.793 57.199C310.542 45.7404 319.044 40.7585 325.295 40.7585Z" fill="black"/>
</g>
</g>
<defs>
<clipPath id="clip0_35_170">
<rect width="350" height="109.603" fill="white" transform="translate(0 0.90332)"/>
</clipPath>
</defs>
</svg>
