<svg width="350" height="85" viewBox="0 0 350 85" fill="none" xmlns="http://www.w3.org/2000/svg">
<g clip-path="url(#clip0_35_126)">
<mask id="mask0_35_126" style="mask-type:luminance" maskUnits="userSpaceOnUse" x="0" y="0" width="350" height="85">
<path d="M350 0H0V84.9515H350V0Z" fill="white"/>
</mask>
<g mask="url(#mask0_35_126)">
<path d="M345.082 79.4677C345.297 79.47 345.51 79.4281 345.708 79.3449C345.906 79.2622 346.085 79.1393 346.234 78.9847C346.382 78.8295 346.497 78.646 346.571 78.4455C346.646 78.245 346.677 78.0309 346.665 77.818C346.665 76.6474 345.955 76.0884 344.497 76.0884H342.142V82.2156H343.028V79.5448H344.116L344.141 79.577L345.831 82.2156H346.778L344.96 79.4847L345.082 79.4677ZM344.057 78.8544H343.031V76.7827H344.332C345.005 76.7827 345.771 76.892 345.771 77.767C345.771 78.7734 344.996 78.8544 344.052 78.8544" fill="black"/>
<path d="M0 12.4673H13.0748V59.8024H37.28V71.7953H0V12.4673Z" fill="black"/>
<path d="M43.0607 31.5691H55.6212V71.7729H43.0607V31.5691ZM49.341 11.5815C50.782 11.5818 52.1906 12.0068 53.3887 12.8027C54.5868 13.5986 55.5205 14.7298 56.0718 16.0531C56.623 17.3764 56.7674 18.8325 56.4859 20.2372C56.2046 21.642 55.5105 22.9323 54.4914 23.945C53.4724 24.9577 52.1741 25.6473 50.7607 25.9266C49.3473 26.2059 47.8823 26.0624 46.5509 25.5143C45.2196 24.9661 44.0817 24.0379 43.2811 22.847C42.4805 21.656 42.0532 20.2559 42.0532 18.8236C42.0532 17.8725 42.2417 16.9307 42.608 16.0519C42.9742 15.1732 43.5111 14.3747 44.1878 13.7022C44.8645 13.0297 45.668 12.4963 46.5522 12.1324C47.4363 11.7686 48.3839 11.5814 49.341 11.5815Z" fill="black"/>
<path d="M108.164 12.4585H120.724V47.9146L134.96 31.5513H150.36L133.874 50.1643L150.013 71.7903H134.226L120.892 51.9173H120.727V71.7875H108.166L108.164 12.4585Z" fill="black"/>
<path d="M62.5843 31.5733H74.6463V37.0676H74.8179C76.0225 35.016 77.7651 33.3283 79.86 32.1844C81.9549 31.0406 84.3228 30.4837 86.7111 30.5733C99.4481 30.5733 101.793 38.9025 101.793 49.7233V71.7706H89.2324V52.224C89.2324 47.5581 89.1458 41.5606 82.69 41.5606C76.1612 41.5606 75.1537 46.6413 75.1537 51.8846V71.7655H62.5934L62.5843 31.5733Z" fill="black"/>
<path d="M176.811 46.9952C176.835 45.9824 176.652 44.9752 176.273 44.0348C175.894 43.0944 175.326 42.2402 174.605 41.5241C173.884 40.8079 173.025 40.2448 172.078 39.8686C171.132 39.4924 170.118 39.3111 169.099 39.3357C166.905 39.2 164.744 39.9269 163.084 41.3597C161.424 42.7925 160.396 44.8164 160.223 46.9952H176.811ZM187.451 64.8108C185.364 67.3265 182.74 69.3495 179.769 70.733C176.798 72.1166 173.555 72.8257 170.274 72.8098C157.714 72.8098 147.658 64.4766 147.658 51.5727C147.658 38.6686 157.712 30.3394 170.274 30.3394C182.014 30.3394 189.377 38.662 189.377 51.5727V55.487H160.223C160.586 57.7066 161.744 59.7216 163.483 61.1601C165.223 62.5981 167.427 63.3632 169.689 63.3139C171.477 63.3032 173.234 62.8478 174.8 61.9898C176.365 61.1318 177.69 59.8983 178.653 58.4015L187.451 64.8108Z" fill="black"/>
<path d="M215.555 41.2871C209.275 41.2871 205.507 45.455 205.507 51.5279C205.507 57.6012 209.274 61.7728 215.555 61.7728C221.837 61.7728 225.613 57.6113 225.613 51.5279C225.613 45.4445 221.843 41.2871 215.555 41.2871ZM237.177 71.7654H225.613V66.4333H225.442C223.991 68.373 222.11 69.9531 219.943 71.0512C217.778 72.1488 215.386 72.735 212.955 72.7639C200.886 72.7639 192.936 64.1067 192.936 51.8647C192.936 40.6213 199.971 30.2972 211.536 30.2972C216.734 30.2972 221.59 31.7108 224.438 35.629H224.603V12.4541H237.175L237.177 71.7654Z" fill="black"/>
<path d="M321.975 71.7881H309.414V52.2376C309.414 47.5756 309.33 41.5741 302.881 41.5741C296.34 41.5741 295.339 46.6535 295.339 51.8982V71.7869H282.778V31.5829H294.836V37.0772H295.005C296.212 35.0265 297.955 33.3395 300.051 32.1959C302.146 31.0522 304.514 30.4948 306.902 30.5829C319.633 30.5829 321.98 38.9056 321.98 49.733L321.975 71.7881ZM268.606 26.0874C267.164 26.0876 265.755 25.663 264.556 24.8671C263.357 24.0713 262.422 22.94 261.871 21.6163C261.319 20.2926 261.174 18.836 261.455 17.4306C261.736 16.0253 262.43 14.7342 263.449 13.7209C264.469 12.7075 265.767 12.0173 267.181 11.7375C268.595 11.4577 270.061 11.6009 271.392 12.149C272.724 12.6971 273.863 13.6254 274.664 14.8167C275.465 16.0079 275.893 17.4086 275.893 18.8414C275.893 19.7928 275.705 20.7349 275.339 21.6139C274.973 22.493 274.436 23.2917 273.759 23.9645C273.083 24.6374 272.279 25.1711 271.395 25.5354C270.51 25.8996 269.563 26.0872 268.606 26.0874ZM274.886 71.7881H262.312V31.5829H274.886V71.7881ZM328.237 0.00476371H256.001C254.361 -0.013626 252.781 0.615699 251.608 1.75444C250.435 2.89319 249.765 4.44818 249.745 6.07773V78.1719C249.765 79.8024 250.434 81.3581 251.607 82.4982C252.78 83.6382 254.36 84.2686 256.001 84.2516H328.237C329.881 84.272 331.465 83.6433 332.643 82.5033C333.82 81.3632 334.494 79.8052 334.517 78.1719V6.07252C334.494 4.43975 333.819 2.88298 332.642 1.74427C331.464 0.60555 329.88 -0.0219746 328.237 -0.000440078" fill="black"/>
<path d="M344.164 73.3579C342.635 73.3726 341.175 73.9882 340.102 75.07C339.029 76.1517 338.431 77.6117 338.439 79.1306C338.446 80.6496 339.058 82.1039 340.142 83.1755C341.225 84.247 342.691 84.8484 344.219 84.8484C345.747 84.8484 347.214 84.247 348.296 83.1755C349.38 82.1039 349.992 80.6496 349.999 79.1306C350.007 77.6117 349.409 76.1517 348.336 75.07C347.263 73.9882 345.803 73.3726 344.275 73.3579H344.164ZM344.164 84.1904C343.161 84.2073 342.177 83.9281 341.334 83.3884C340.491 82.8487 339.828 82.0728 339.429 81.1587C339.031 80.2446 338.913 79.2331 339.092 78.2528C339.271 77.2725 339.739 76.3669 340.436 75.651C341.133 74.9346 342.028 74.4402 343.008 74.2295C343.988 74.0188 345.008 74.1015 345.94 74.4674C346.873 74.8338 347.676 75.4658 348.246 76.2853C348.817 77.1043 349.131 78.0733 349.147 79.0695C349.147 79.0984 349.147 79.1255 349.147 79.1539C349.175 80.461 348.68 81.7256 347.77 82.6697C346.86 83.6132 345.61 84.1598 344.296 84.1881H344.165" fill="black"/>
</g>
</g>
<defs>
<clipPath id="clip0_35_126">
<rect width="350" height="84.9515" fill="white"/>
</clipPath>
</defs>
</svg>
