<svg width="350" height="72" viewBox="0 0 350 72" fill="none" xmlns="http://www.w3.org/2000/svg">
<g clip-path="url(#clip0_35_208)">
<mask id="mask0_35_208" style="mask-type:luminance" maskUnits="userSpaceOnUse" x="0" y="0" width="350" height="72">
<path d="M350 0.90332H0V71.4201H350V0.90332Z" fill="white"/>
</mask>
<g mask="url(#mask0_35_208)">
<path d="M128.459 3.13281H141.725L164.281 43.9353L186.837 3.13281H199.815V70.1791H188.992V18.7932L169.214 54.3757H159.061L139.282 18.7932V70.1791H128.459V3.13281Z" fill="black"/>
<path d="M234.726 71.3774C229.713 71.3774 225.307 70.2681 221.508 68.0491C217.709 65.8302 214.747 62.7573 212.625 58.8302C210.501 54.9031 209.44 50.4015 209.44 45.3251C209.44 40.1853 210.478 35.6356 212.553 31.6765C214.628 27.7181 217.509 24.6211 221.197 22.3855C224.885 20.1512 229.123 19.0338 233.912 19.0332C238.669 19.0332 242.763 20.1586 246.196 22.4093C249.627 24.6607 252.269 27.8135 254.122 31.8679C255.973 35.923 256.899 40.68 256.899 46.1394V49.1081H220.168C220.838 53.1955 222.49 56.4122 225.124 58.758C227.758 61.1049 231.086 62.278 235.109 62.278C238.334 62.278 241.111 61.7989 243.442 60.8411C245.772 59.8835 247.959 58.431 250.003 56.4836L255.75 63.5232C250.034 68.7598 243.026 71.378 234.726 71.3774ZM242.628 31.6043C240.361 29.2899 237.392 28.1326 233.72 28.1321C230.144 28.1321 227.151 29.3137 224.741 31.6765C222.33 34.039 220.805 37.2158 220.168 41.2066H246.507C246.188 37.1198 244.894 33.919 242.628 31.6043Z" fill="black"/>
<path d="M270.022 29.0902H260.061V20.2304H270.022V5.57617H280.462V20.2304H295.594V29.0902H280.462V51.5506C280.462 55.2858 281.102 57.9515 282.379 59.5479C283.653 61.145 285.841 61.9432 288.939 61.9424C290.311 61.9424 291.476 61.8866 292.436 61.775C293.393 61.6635 294.446 61.512 295.594 61.3197V70.0837C294.284 70.4629 292.947 70.7512 291.596 70.9461C290.052 71.1736 288.49 71.2854 286.926 71.2811C275.658 71.2811 270.022 65.1194 270.022 52.7959V29.0902Z" fill="black"/>
<path d="M350 70.18H339.752V63.188C337.93 65.8064 335.617 67.8258 332.806 69.246C329.998 70.6662 326.804 71.3766 323.23 71.3774C318.823 71.3774 314.921 70.252 311.519 68.0007C308.12 65.7501 305.446 62.6534 303.499 58.7104C301.55 54.7675 300.576 50.2577 300.576 45.1816C300.576 40.0732 301.566 35.5555 303.546 31.6281C305.525 27.7016 308.263 24.6207 311.76 22.3855C315.254 20.1512 319.271 19.0338 323.805 19.0332C327.22 19.0332 330.285 19.6958 332.998 21.0209C335.677 22.316 337.993 24.248 339.752 26.6478V20.2307H350V70.18ZM339.56 37.7107C338.442 34.8691 336.678 32.6261 334.269 30.9817C331.857 29.3375 329.071 28.5156 325.91 28.5156C321.442 28.5156 317.882 30.0162 315.232 33.0172C312.58 36.0184 311.257 40.0729 311.257 45.1813C311.257 50.3219 312.534 54.3929 315.087 57.3936C317.641 60.3948 321.106 61.8952 325.481 61.8952C328.705 61.8952 331.579 61.065 334.1 59.4044C336.623 57.7452 338.442 55.5104 339.56 52.7V37.7107Z" fill="black"/>
<path d="M11.4673 47.4077C11.4673 51.4614 12.3571 54.5736 13.52 56.4565C15.0448 58.9229 17.3191 59.9677 19.6377 59.9677C22.6282 59.9677 25.3639 59.2256 30.6359 51.9339C34.8597 46.0894 39.8366 37.886 43.1851 32.7429L48.8559 24.0299C52.7953 17.9788 57.3549 11.2519 62.5827 6.69235C66.8508 2.97084 71.4547 0.90332 76.0881 0.90332C83.8671 0.90332 91.277 5.41121 96.9478 13.8659C103.154 23.1254 106.167 34.7882 106.167 46.8241C106.167 53.9792 104.756 59.2366 102.356 63.3901C100.038 67.4069 95.5191 71.4201 87.9173 71.4201V59.9677C94.4262 59.9677 96.0507 53.9866 96.0507 47.1416C96.0507 37.3875 93.7765 26.5626 88.7663 18.8279C85.2111 13.3416 80.6034 9.98927 75.5344 9.98927C70.0517 9.98927 65.6398 14.1243 60.6815 21.4972C58.0453 25.4144 55.3391 30.1882 52.3007 35.5746L48.9557 41.5003C42.2362 53.4145 40.5344 56.1281 37.1746 60.6065C31.2859 68.4481 26.2574 71.4201 19.6377 71.4201C11.7848 71.4201 6.81907 68.0199 3.74366 62.8954C1.23311 58.7198 0 53.2409 0 46.9978L11.4673 47.4077Z" fill="black"/>
<path d="M9.04156 14.6744C14.2989 6.57048 21.886 0.90332 30.5881 0.90332C35.6275 0.90332 40.6374 2.39489 45.8691 6.66654C51.5916 11.3369 57.6909 19.0273 65.3001 31.702L68.0285 36.2503C74.6148 47.2231 78.3622 52.8679 80.5552 55.5298C83.376 58.9486 85.3513 59.9677 87.9172 59.9677C94.4261 59.9677 96.0506 53.9866 96.0506 47.1416L106.166 46.8241C106.166 53.9792 104.756 59.2366 102.356 63.3901C100.038 67.4069 95.5188 71.4201 87.9172 71.4201C83.1914 71.4201 79.0045 70.3939 74.375 66.0263C70.8159 62.6739 66.655 56.7187 63.4539 51.3654L53.9325 35.4604C49.155 27.4782 44.7726 21.5267 42.2362 18.8316C39.5079 15.9334 36.0005 12.4334 30.4035 12.4334C25.8733 12.4334 22.0263 15.6122 18.8069 20.4745L9.04156 14.6744Z" fill="black"/>
<path d="M30.4035 12.4334C25.8734 12.4334 22.0264 15.6122 18.8069 20.4745C14.2547 27.3453 11.4673 37.5795 11.4673 47.4077C11.4673 51.4614 12.3571 54.5736 13.52 56.4565L3.74366 62.8954C1.23311 58.7198 0 53.2409 0 46.9978C0 35.6449 3.11601 23.8121 9.04168 14.6744C14.299 6.57048 21.8861 0.90332 30.5881 0.90332L30.4035 12.4334Z" fill="black"/>
</g>
</g>
<defs>
<clipPath id="clip0_35_208">
<rect width="350" height="70.5469" fill="white" transform="translate(0 0.90332)"/>
</clipPath>
</defs>
</svg>
