<svg width="350" height="76" viewBox="0 0 350 76" fill="none" xmlns="http://www.w3.org/2000/svg">
<g clip-path="url(#clip0_35_181)">
<mask id="mask0_35_181" style="mask-type:luminance" maskUnits="userSpaceOnUse" x="0" y="0" width="350" height="76">
<path d="M349.565 0.90332H0V75.4772H349.565V0.90332Z" fill="white"/>
</mask>
<g mask="url(#mask0_35_181)">
<path d="M123.389 43.856L121.306 49.7526H121.132C120.785 48.423 120.148 46.3997 119.107 43.9717L107.937 15.9342H96.9982V60.6206H104.233V33.0457C104.233 31.3114 104.233 29.346 104.175 26.9179C104.117 25.704 104.001 24.779 103.943 24.0853H104.117C104.465 25.8196 104.869 27.0914 105.159 27.9007L118.586 60.5053H123.679L136.99 27.6117C137.279 26.8602 137.569 25.3571 137.858 24.0853H138.032C137.858 27.3804 137.742 30.3287 137.685 32.1208V60.4471H145.382V15.8186H134.849L123.389 43.856ZM152.674 28.421H160.198V60.4471H152.674V28.421ZM156.494 14.8936C155.22 14.8936 154.179 15.3561 153.311 16.1654C152.443 16.9748 151.979 18.0154 151.979 19.2871C151.979 20.5012 152.443 21.5417 153.311 22.351C154.179 23.1604 155.22 23.565 156.494 23.565C157.767 23.565 158.867 23.1025 159.677 22.351C160.545 21.5417 161.008 20.5012 161.008 19.2871C161.008 18.0731 160.545 17.0326 159.677 16.1654C158.925 15.3561 157.825 14.8936 156.494 14.8936ZM186.878 28.1319C185.49 27.8429 184.042 27.6695 182.653 27.6695C179.239 27.6695 176.114 28.421 173.509 29.924C170.905 31.4271 168.821 33.5082 167.49 36.1096C166.101 38.7688 165.407 41.8327 165.407 45.3591C165.407 48.423 166.101 51.1398 167.432 53.6256C168.764 56.0537 170.616 58.0195 173.104 59.3489C175.477 60.6788 178.255 61.3723 181.38 61.3723C184.968 61.3723 188.036 60.6206 190.467 59.2335L190.524 59.1754V52.2385L190.235 52.4697C189.135 53.279 187.862 53.9726 186.589 54.3773C185.258 54.8396 184.042 55.0708 183.001 55.0708C179.991 55.0708 177.618 54.2038 175.94 52.2962C174.203 50.4463 173.335 47.9027 173.335 44.7232C173.335 41.4281 174.203 38.8266 175.998 36.9189C177.792 35.0112 180.165 34.0285 183.058 34.0285C185.49 34.0285 187.978 34.8378 190.235 36.4565L190.524 36.6877V29.346L190.467 29.2881C189.483 28.8835 188.383 28.421 186.878 28.1319ZM211.707 27.9007C209.855 27.9007 208.118 28.4788 206.614 29.6928C205.341 30.7333 204.472 32.2364 203.72 34.0285H203.662V28.421H196.138V60.4471H203.662V44.0873C203.662 41.3124 204.241 39.0001 205.514 37.3236C206.787 35.5893 208.408 34.7222 210.375 34.7222C211.07 34.7222 211.764 34.8956 212.632 35.0112C213.443 35.2425 214.021 35.4737 214.427 35.7627L214.716 35.994V28.4788L214.542 28.421C214.021 28.0741 212.98 27.9007 211.707 27.9007ZM232.195 27.7273C226.928 27.7273 222.703 29.2881 219.751 32.352C216.742 35.4159 215.295 39.636 215.295 44.9544C215.295 49.926 216.8 53.9726 219.694 56.9207C222.587 59.8112 226.523 61.3146 231.442 61.3146C236.593 61.3146 240.702 59.7535 243.654 56.6319C246.663 53.5102 248.11 49.3479 248.11 44.2029C248.11 39.1157 246.721 35.0691 243.885 32.1208C241.165 29.1725 237.172 27.7273 232.195 27.7273ZM238.213 52.3538C236.824 54.1461 234.625 55.0131 231.905 55.0131C229.185 55.0131 226.986 54.1461 225.423 52.2385C223.86 50.4463 223.108 47.8449 223.108 44.5497C223.108 41.139 223.918 38.5376 225.423 36.6877C226.986 34.8378 229.127 33.9129 231.847 33.9129C234.509 33.9129 236.593 34.78 238.098 36.5721C239.602 38.3642 240.413 40.9656 240.413 44.3763C240.297 47.8449 239.66 50.5619 238.213 52.3538ZM264.894 41.7171C262.521 40.7343 261.016 39.9828 260.321 39.3469C259.743 38.7688 259.453 37.9595 259.453 36.9189C259.453 36.0518 259.801 35.1846 260.669 34.6065C261.537 34.0285 262.521 33.7395 263.968 33.7395C265.241 33.7395 266.572 33.9707 267.845 34.3175C269.119 34.6644 270.276 35.1846 271.202 35.8784L271.492 36.1096V29.0569L271.318 28.9991C270.45 28.6522 269.292 28.3054 267.903 28.0163C266.515 27.7851 265.241 27.6695 264.199 27.6695C260.611 27.6695 257.66 28.5366 255.344 30.4443C253.03 32.2364 251.93 34.6644 251.93 37.497C251.93 39.0001 252.161 40.3297 252.682 41.4281C253.203 42.5264 253.955 43.567 254.997 44.4341C256.039 45.2435 257.544 46.1684 259.627 47.0356C261.363 47.7871 262.694 48.3652 263.505 48.8276C264.315 49.2901 264.836 49.8104 265.241 50.2151C265.531 50.6774 265.704 51.2556 265.704 52.0073C265.704 54.1461 264.083 55.1866 260.785 55.1866C259.512 55.1866 258.18 54.9555 256.618 54.4349C255.055 53.9149 253.608 53.1632 252.393 52.2962L252.103 52.065V59.4065L252.277 59.4647C253.377 59.9847 254.708 60.3317 256.328 60.7364C257.949 61.0253 259.396 61.2565 260.669 61.2565C264.547 61.2565 267.73 60.3894 269.987 58.4818C272.302 56.6319 273.517 54.2619 273.517 51.1979C273.517 49.0589 272.938 47.1512 271.665 45.7059C269.987 44.3185 267.903 42.8733 264.894 41.7171ZM293.368 27.7273C288.102 27.7273 283.877 29.2881 280.925 32.352C277.974 35.4159 276.469 39.636 276.469 44.9544C276.469 49.926 277.974 53.9726 280.868 56.9207C283.761 59.8112 287.696 61.3146 292.616 61.3146C297.767 61.3146 301.876 59.7535 304.828 56.6319C307.837 53.5102 309.284 49.3479 309.284 44.2029C309.284 39.1157 307.895 35.0691 305.059 32.1208C302.339 29.1725 298.346 27.7273 293.368 27.7273ZM299.33 52.3538C297.94 54.1461 295.741 55.0131 293.021 55.0131C290.243 55.0131 288.102 54.1461 286.539 52.2385C284.977 50.4463 284.224 47.8449 284.224 44.5497C284.224 41.139 285.034 38.5376 286.539 36.6877C288.102 34.8378 290.243 33.9129 292.963 33.9129C295.568 33.9129 297.709 34.78 299.214 36.5721C300.719 38.3642 301.528 40.9656 301.528 44.3763C301.528 47.8449 300.776 50.5619 299.33 52.3538ZM349.507 34.6065V28.421H341.926V18.9403L341.694 18.9981L334.517 21.137L334.344 21.1948V28.421H323V24.3744C323 22.5244 323.463 21.0792 324.273 20.1543C325.084 19.2293 326.299 18.7669 327.804 18.7669C328.846 18.7669 329.945 18.9981 331.161 19.5184L331.45 19.6918V13.1594L331.276 13.1015C330.235 12.7547 328.846 12.5234 327.052 12.5234C324.794 12.5234 322.827 13.0438 321.032 13.9109C319.238 14.8936 317.907 16.2232 316.923 18.0154C315.94 19.7496 315.419 21.7151 315.419 23.9697V28.421H310.152V34.5488H315.419V60.4471H323V34.6065H334.344V51.0821C334.344 57.8459 337.527 61.2565 343.893 61.2565C344.935 61.2565 346.035 61.083 347.076 60.9099C348.176 60.6788 348.986 60.3894 349.449 60.1582L349.507 60.1006V53.9149L349.217 54.1461C348.755 54.4349 348.349 54.6661 347.655 54.8396C347.076 55.0131 346.556 55.0708 346.15 55.0708C344.646 55.0708 343.604 54.7243 342.851 53.8572C342.157 53.0479 341.81 51.718 341.81 49.7526V34.6065H349.507Z" fill="black"/>
<path d="M0 0.90332H35.4774V36.3404H0V0.90332Z" fill="black"/>
<path d="M39.1814 0.90332H74.6589V36.3404H39.1814V0.90332Z" fill="black"/>
<path d="M0 40.04H35.4774V75.4772H0V40.04Z" fill="black"/>
<path d="M39.1814 40.04H74.6589V75.4772H39.1814V40.04Z" fill="black"/>
</g>
</g>
<defs>
<clipPath id="clip0_35_181">
<rect width="350" height="74.5739" fill="white" transform="translate(0 0.90332)"/>
</clipPath>
</defs>
</svg>
