<svg width="350" height="66" viewBox="0 0 350 66" fill="none" xmlns="http://www.w3.org/2000/svg">
<g clip-path="url(#clip0_35_149)">
<mask id="mask0_35_149" style="mask-type:luminance" maskUnits="userSpaceOnUse" x="0" y="0" width="350" height="66">
<path d="M350 0H0V65.3333H350V0Z" fill="white"/>
</mask>
<g mask="url(#mask0_35_149)">
<path d="M345.477 52.1474V51.1778H346.087C346.41 51.1778 346.877 51.2138 346.877 51.6087C346.877 52.0037 346.626 52.1474 346.231 52.1474H345.477ZM345.477 52.8296H345.908L346.877 54.5173H347.919L346.842 52.7578C347.38 52.7937 347.811 52.3987 347.847 51.8601V51.7165C347.847 50.7828 347.201 50.4956 346.124 50.4956H344.579V54.5173H345.477V52.8296ZM350.002 52.5064C350.002 50.1365 348.171 48.772 346.124 48.772C344.077 48.772 342.245 50.1365 342.245 52.5064C342.245 54.8763 344.077 56.2409 346.124 56.2409C348.171 56.2409 350.002 54.8763 350.002 52.5064ZM348.853 52.5064C348.924 54.0146 347.739 55.3073 346.231 55.3791H346.124C344.544 55.4509 343.215 54.1941 343.143 52.6141C343.071 51.0342 344.328 49.7056 345.908 49.6337C347.488 49.5619 348.817 50.8187 348.888 52.3987C348.853 52.4346 348.853 52.4705 348.853 52.5064Z" fill="black"/>
<path d="M207.623 12.6114V54.9834H219.58V12.6114H207.623ZM113.542 12.5396V54.9475H125.607V22.0194L135.015 22.0554C138.103 22.0554 140.259 22.8094 141.73 24.3894C143.633 26.4003 144.388 29.6679 144.388 35.5929V54.9475H156.093V31.5352C156.093 14.8019 145.429 12.5396 135.015 12.5396H113.542ZM226.905 12.6114V54.9834H246.295C256.638 54.9834 260.013 53.2599 263.64 49.4176C266.225 46.7245 267.877 40.7636 267.877 34.2642C267.877 28.3035 266.476 22.989 263.999 19.6854C259.618 13.7604 253.226 12.6114 243.675 12.6114H226.905ZM238.755 21.804H243.89C251.359 21.804 256.171 25.1435 256.171 33.8334C256.171 42.5232 251.359 45.8986 243.89 45.8986H238.755V21.804ZM190.386 12.6114L180.404 46.1858L170.852 12.6114H157.925L171.57 54.9834H188.807L202.595 12.6114H190.386ZM273.479 54.9834H285.436V12.6114H273.479V54.9834ZM307.017 12.6114L290.32 54.9475H302.098L304.755 47.4427H324.504L327.019 54.9116H339.838L322.997 12.6114H307.017ZM314.773 20.3318L322.027 40.1532H307.305L314.773 20.3318Z" fill="black"/>
<path d="M36.3753 19.6498V13.8326C36.9498 13.7967 37.5244 13.7608 38.0989 13.7608C54.0422 13.2581 64.4916 27.4779 64.4916 27.4779C64.4916 27.4779 53.2163 43.134 41.1152 43.134C39.4993 43.134 37.9194 42.8825 36.4112 42.3798V24.7129C42.6234 25.467 43.8802 28.196 47.5787 34.4081L55.8736 27.4419C55.8736 27.4419 49.8051 19.5062 39.607 19.5062C38.5298 19.4702 37.4525 19.5421 36.3753 19.6498ZM36.3753 0.402832V9.09269L38.0989 8.98496C60.2544 8.23088 74.7256 27.1546 74.7256 27.1546C74.7256 27.1546 58.1358 47.3352 40.8639 47.3352C39.3557 47.3352 37.8834 47.1916 36.4112 46.9402V52.3265C37.6321 52.4701 38.8889 52.5779 40.1098 52.5779C56.1967 52.5779 67.8311 44.3549 79.1064 34.6595C80.9737 36.1677 88.6221 39.7944 90.2021 41.3744C79.5014 50.3515 54.545 57.5692 40.3971 57.5692C39.0326 57.5692 37.7398 57.4973 36.4471 57.3537V64.9304H97.5632V0.402832H36.3753ZM36.3753 42.3798V46.9761C21.5092 44.3189 17.3797 28.8424 17.3797 28.8424C17.3797 28.8424 24.5255 20.9425 36.3753 19.6498V24.6769H36.3394C30.1273 23.9229 25.2437 29.7401 25.2437 29.7401C25.2437 29.7401 28.0086 39.5431 36.3753 42.3798ZM9.98256 28.196C9.98256 28.196 18.7802 15.1972 36.4112 13.8326V9.09269C16.877 10.6726 0 27.1906 0 27.1906C0 27.1906 9.55164 54.8401 36.3753 57.3537V52.3265C16.6974 49.8848 9.98256 28.196 9.98256 28.196Z" fill="black"/>
</g>
</g>
<defs>
<clipPath id="clip0_35_149">
<rect width="350" height="65.3333" fill="white"/>
</clipPath>
</defs>
</svg>
