<svg width="350" height="75" viewBox="0 0 350 75" fill="none" xmlns="http://www.w3.org/2000/svg">
<g clip-path="url(#clip0_35_193)">
<mask id="mask0_35_193" style="mask-type:luminance" maskUnits="userSpaceOnUse" x="0" y="0" width="350" height="75">
<path d="M349.917 0.43457H0V74.7972H349.917V0.43457Z" fill="white"/>
</mask>
<g mask="url(#mask0_35_193)">
<path d="M92.4709 28.1579C93.6329 23.8046 93.153 20.4738 91.0297 18.1655C88.9074 15.8571 85.1962 14.6952 79.8976 14.6797H59.5917L47.351 60.6064H57.1823L62.1324 42.0157H68.6248C69.8126 41.9562 70.9964 42.1987 72.0648 42.7205C72.4986 42.9919 72.86 43.3637 73.1187 43.8049C73.378 44.2457 73.5267 44.7427 73.552 45.2538L75.3263 60.6064H85.8625L84.1427 46.3457C83.8017 43.1621 82.3377 41.2876 79.7965 40.7222C82.8711 39.874 85.6766 38.2526 87.9466 36.0125C90.1398 33.8535 91.7039 31.1383 92.4709 28.1579ZM83.058 28.3206C82.6342 30.2036 81.4811 31.8415 79.8505 32.8753C78.3013 33.8513 76.0392 34.3316 73.1648 34.3316H64.0386L67.2461 22.3328H76.3803C79.2462 22.3328 81.2143 22.8209 82.299 23.7891C83.3833 24.7574 83.6158 26.2911 83.058 28.3206Z" fill="black"/>
<path d="M120.857 27.779L119.609 32.4267C119.09 30.7656 117.99 29.3469 116.51 28.4297C114.785 27.3942 112.796 26.8829 110.785 26.9579C107.965 26.9586 105.192 27.6956 102.744 29.0958C100.078 30.6241 97.7764 32.7119 95.9956 35.2153C94.0335 37.9219 92.5963 40.9723 91.758 44.2083C90.879 47.0886 90.6931 50.1353 91.2156 53.1009C91.6147 55.4433 92.8679 57.5542 94.733 59.0266C96.7601 60.4762 99.216 61.202 101.706 61.0874C103.929 61.0924 106.126 60.6165 108.148 59.6929C110.17 58.7683 111.968 57.4184 113.419 55.7343L112.133 60.5838H121.717L130.455 27.779H120.857ZM116.503 44.046C115.91 46.7168 114.591 49.1724 112.691 51.1412C111.873 51.9418 110.903 52.5719 109.839 52.9953C108.776 53.4177 107.638 53.6249 106.493 53.6046C104.053 53.6046 102.411 52.8297 101.527 51.1799C100.644 49.5302 100.621 47.2295 101.427 44.2083C102.039 41.5136 103.379 39.038 105.3 37.0511C106.121 36.2261 107.098 35.5732 108.174 35.1303C109.251 34.6874 110.404 34.4635 111.568 34.4716C113.954 34.4716 115.581 35.3004 116.418 36.9504C117.254 38.6003 117.34 40.9319 116.518 44.0381L116.503 44.046Z" fill="black"/>
<path d="M164.645 27.8018H137.041L135.004 35.4549H151.072L129.945 53.8827L128.14 60.6452H156.65L158.687 52.9923H141.45L162.925 34.3007L164.645 27.8018Z" fill="black"/>
<path d="M194.836 29.0023C192.272 27.5377 189.349 26.8236 186.399 26.9418C183.072 26.913 179.779 27.6164 176.754 29.0023C173.812 30.374 171.226 32.4074 169.2 34.9435C167.084 37.6038 165.555 40.682 164.715 43.9755C163.81 46.9046 163.698 50.0206 164.389 53.0075C165.023 55.4863 166.599 57.6205 168.782 58.9565C171.003 60.3248 173.843 61.0089 177.304 61.0089C180.596 61.0382 183.853 60.3372 186.841 58.9565C189.774 57.5843 192.347 55.5477 194.356 53.0075C196.476 50.3488 198.008 47.2702 198.849 43.9755C199.755 41.0464 199.864 37.929 199.167 34.9435C198.557 32.4727 197.001 30.3395 194.836 29.0023ZM189.242 43.9598C188.383 47.1822 187.12 49.5992 185.415 51.195C183.77 52.7616 181.574 53.6163 179.303 53.5727C174.293 53.5727 172.643 50.3686 174.352 43.9598C175.194 40.779 176.485 38.3802 178.226 36.7639C179.892 35.1707 182.119 34.2994 184.424 34.3394C186.81 34.3394 188.437 35.114 189.273 36.7639C190.11 38.4138 190.087 40.7763 189.242 43.9598Z" fill="black"/>
<path d="M299.191 27.7787L297.944 32.4263C297.424 30.7653 296.324 29.3466 294.845 28.4293C293.123 27.3846 291.133 26.865 289.119 26.9344C286.294 26.9405 283.519 27.6855 281.07 29.0955C278.403 30.6235 276.098 32.7112 274.314 35.2149C272.356 37.9234 270.918 40.9732 270.077 44.2081C269.205 47.0896 269.019 50.1347 269.535 53.1007C269.934 55.4432 271.187 57.5541 273.052 59.0264C275.105 60.4879 277.592 61.2137 280.109 61.0873C282.283 61.0788 284.43 60.6089 286.408 59.7081C288.449 58.7924 290.262 57.4351 291.715 55.7342L290.429 60.5836H300.012L308.758 27.7787H299.191ZM294.814 44.0457C294.224 46.7158 292.907 49.1714 291.01 51.141C290.19 51.9392 289.22 52.5678 288.157 52.9907C287.093 53.4135 285.956 53.6218 284.812 53.6044C282.364 53.6044 280.721 52.8296 279.838 51.1797C278.955 49.5299 278.94 47.2293 279.737 44.2081C280.353 41.5145 281.693 39.0399 283.612 37.0508C284.434 36.2264 285.413 35.5738 286.489 35.1309C287.567 34.6881 288.722 34.4639 289.886 34.4713C292.272 34.4713 293.889 35.2976 294.736 36.9501C295.635 38.5535 295.658 40.9316 294.814 44.0379V44.0457Z" fill="black"/>
<path d="M228.946 36.6086L231.395 27.6774C230.362 27.2101 229.235 26.9899 228.102 27.0344C225.887 27.037 223.711 27.6078 221.78 28.6921C220.02 29.6566 218.491 30.9943 217.302 32.6116L218.565 27.8013H208.99L200.173 60.6058H209.888L214.451 43.4794C214.986 41.1941 216.238 39.1395 218.023 37.6156C219.859 36.1817 222.14 35.4387 224.468 35.5165C226.028 35.5099 227.565 35.8849 228.946 36.6086Z" fill="black"/>
<path d="M262.803 29.1652C260.821 27.6506 258.369 26.8802 255.877 26.9886C253.452 26.9913 251.062 27.57 248.905 28.6773C246.743 29.7401 244.879 31.324 243.482 33.2862L243.52 33.0615L245.155 27.8019H235.626L233.193 36.9191C233.193 37.0197 233.139 37.1282 233.116 37.229L223.122 74.7977H232.883L237.927 55.866C238.408 57.5361 239.519 58.955 241.026 59.824C242.773 60.8279 244.767 61.3222 246.782 61.2493C249.611 61.2573 252.398 60.5543 254.885 59.2043C257.533 57.7458 259.817 55.7098 261.571 53.2479C263.5 50.555 264.911 47.5259 265.731 44.3168C266.617 41.3935 266.818 38.3058 266.32 35.2924C265.912 32.8973 264.665 30.7253 262.803 29.1652ZM255.901 44.1618C255.305 46.7905 253.994 49.2032 252.112 51.1335C250.446 52.7259 248.218 53.5949 245.914 53.5503C243.512 53.5503 241.886 52.7209 241.026 51.0864C240.165 49.4523 240.119 47.0975 240.964 43.9912C241.567 41.2996 242.908 38.8292 244.837 36.8571C245.656 36.057 246.626 35.4263 247.689 35.001C248.753 34.5756 249.89 34.3641 251.035 34.3784C253.359 34.3784 254.978 35.246 255.823 36.9578C256.667 38.6697 256.721 41.0942 255.901 44.1618Z" fill="black"/>
<path d="M349.51 26.7095H339.438L337.889 29.9473C337.765 30.11 337.648 30.2727 337.509 30.4741L337.346 30.7374L324.951 48.0731L322.379 27.8016H312.214L317.382 58.8946L305.955 74.7973H315.739L318.567 70.7614C318.653 70.6374 318.737 70.5368 318.815 70.4054L322.123 65.6879L322.232 65.5639L337.005 44.4867L349.51 26.7095Z" fill="black"/>
<path d="M22.467 19.9238L19.5231 30.6444L36.1332 19.8696L25.287 60.6063H36.2959L52.325 0.43457L22.467 19.9238Z" fill="#858585"/>
<path d="M4.57086 43.4721L0 60.6065H22.5832L31.8257 25.749L4.57086 43.4721Z" fill="black"/>
</g>
</g>
<defs>
<clipPath id="clip0_35_193">
<rect width="350" height="74.8584" fill="white"/>
</clipPath>
</defs>
</svg>
