<svg width="350" height="106" viewBox="0 0 350 106" fill="none" xmlns="http://www.w3.org/2000/svg">
<g clip-path="url(#clip0_35_191)">
<path d="M34.5416 105.903C34.4716 105.861 34.4016 105.791 34.3316 105.721C33.0996 104.194 25.5118 94.6555 17.7838 82.4125C15.4599 78.5184 13.9619 75.465 14.2419 74.6803C14.9978 72.6356 28.4797 71.5149 32.6377 73.3636C33.8976 73.9243 33.8696 74.6663 33.8696 75.101C33.8696 76.9777 33.7716 81.9925 33.7716 81.9925C33.7716 83.0292 34.6116 83.8692 35.6476 83.8692C36.6836 83.8692 37.5236 83.0292 37.5236 81.9785L37.5096 69.4557C37.5096 68.3632 36.3336 68.097 36.1096 68.055C33.9396 68.041 29.5437 68.027 24.8118 68.027C14.3819 68.027 12.0579 68.4612 10.2799 67.2986C6.42998 64.8053 0.158054 47.8282 0.00405583 38.275C-0.205941 24.7998 7.75999 13.1315 18.9599 7.34642C23.6358 4.97915 28.9277 3.64844 34.5136 3.64844C52.2514 3.64844 66.8533 17.0817 68.7993 34.3669V34.409C69.1492 38.5832 46.2035 39.4797 41.6676 38.261C40.9676 38.0789 40.7996 37.3645 40.7996 37.0564C40.7996 33.8767 40.7716 24.9399 40.7716 24.9399C40.7716 23.9033 39.9316 23.0629 38.8956 23.0629C37.8596 23.0629 37.0196 23.9033 37.0196 24.9539L37.0616 41.4267C37.0896 42.4632 37.9576 42.7435 38.1956 42.7855H52.4334C60.0354 42.7855 63.2273 43.6679 65.3413 45.2928C66.7553 46.3713 67.3013 48.4445 66.8253 51.1339C62.5694 75.031 35.5636 104.656 34.5416 105.903ZM107.761 50.0834C114.579 53.0109 118.793 56.2607 118.793 63.4045C118.793 70.6884 113.291 75.395 104.779 75.395C97.8768 75.395 92.3468 72.2569 89.5888 66.7943L89.1408 65.9118L97.2468 61.1913L97.7788 62.0598C99.5988 65.0574 101.643 66.3321 104.611 66.3321C107.159 66.3321 108.881 65.1975 108.881 63.5026C108.881 61.6255 107.635 60.9252 103.799 59.2443L101.853 58.4038C96.6448 56.1767 91.8288 53.081 91.8288 45.5869C91.8288 38.8494 96.9668 34.1568 104.331 34.1568C109.903 34.1568 113.739 36.328 116.371 40.9785L116.861 41.847L109.007 46.9177L108.461 45.9511C107.145 43.5979 105.913 43.1216 104.345 43.1216C102.707 43.1216 101.643 44.0321 101.643 45.4469C101.643 47.0718 102.427 47.7861 105.829 49.2569L107.761 50.0834ZM165.174 51.4561L170.9 35.4315H180.728L166.168 76.053H163.984L155.15 57.0311C154.744 56.1626 154.31 55.084 153.946 54.0895C153.568 55.084 153.134 56.1626 152.728 57.0451L143.544 76.067H141.374L126.577 35.4455H137.077L142.858 51.4701C143.222 52.4926 143.6 53.7393 143.936 54.888C144.328 53.6973 144.804 52.4086 145.294 51.3721L152.896 35.1093H154.996L162.71 51.3721C163.2 52.4086 163.676 53.6973 164.068 54.888C164.418 53.7253 164.81 52.4786 165.174 51.4561ZM192.18 74.891V34.605H202.091V74.891H192.18ZM234.613 61.3454V52.3386H253.023V70.3943L252.645 70.7024C250.545 72.4396 244.959 75.381 237.385 75.381C224.617 75.381 215.713 66.8924 215.713 54.7338C215.713 42.7994 224.309 34.1428 236.167 34.1428C242.677 34.1428 247.465 35.9918 250.769 39.7738L251.413 40.5162L244.651 47.2398L243.923 46.4834C242.033 44.5364 240.073 43.3177 236.181 43.3177C230.119 43.3177 225.877 48.0102 225.877 54.7338C225.877 61.7376 230.399 66.2621 237.413 66.2621C239.737 66.2621 242.159 65.8558 243.811 65.2115V61.3314L234.613 61.3454ZM284.873 61.3454V52.3386H303.283V70.3943L302.905 70.7024C300.791 72.4396 295.219 75.381 287.645 75.381C274.877 75.381 265.973 66.8924 265.973 54.7338C265.973 42.7994 274.569 34.1428 286.413 34.1428C292.937 34.1428 297.711 35.9918 301.015 39.7738L301.659 40.5162L294.897 47.2398L294.155 46.4834C292.265 44.5364 290.305 43.3177 286.399 43.3177C280.337 43.3177 276.095 48.0102 276.095 54.7338C276.095 61.7376 280.617 66.2621 287.631 66.2621C289.955 66.2621 292.377 65.8558 294.029 65.2115V61.3314L284.873 61.3454ZM339.64 34.605H350L335.776 61.4155V74.891H325.808V61.9897L310.647 34.619H321.706L328.706 47.464C329.462 48.8647 330.246 50.7137 330.848 52.2125C331.422 50.7277 332.164 48.8927 332.92 47.478L339.64 34.605Z" fill="black"/>
</g>
<defs>
<clipPath id="clip0_35_191">
<rect width="350" height="105" fill="white" transform="translate(0 0.90332)"/>
</clipPath>
</defs>
</svg>
